<?xml version="1.0" encoding="utf-8"?>
<!-- Generator: Adobe Illustrator 16.0.0, SVG Export Plug-In . SVG Version: 6.00 Build 0)  -->
<!DOCTYPE svg PUBLIC "-//W3C//DTD SVG 1.1//EN" "http://www.w3.org/Graphics/SVG/1.1/DTD/svg11.dtd">
<svg version="1.1"
	 id="svg2" inkscape:output_extension="org.inkscape.output.svg.inkscape" sodipodi:docname="Manual_Layout4d-2.svg" inkscape:version="0.47 r22583" sodipodi:version="0.32" xmlns:dc="http://purl.org/dc/elements/1.1/" xmlns:cc="http://creativecommons.org/ns#" xmlns:rdf="http://www.w3.org/1999/02/22-rdf-syntax-ns#" xmlns:svg="http://www.w3.org/2000/svg" xmlns:sodipodi="http://sodipodi.sourceforge.net/DTD/sodipodi-0.dtd" xmlns:inkscape="http://www.inkscape.org/namespaces/inkscape"
	 xmlns="http://www.w3.org/2000/svg" xmlns:xlink="http://www.w3.org/1999/xlink" x="0px" y="0px" width="286.857px"
	 height="285.43px" viewBox="0 0 286.857 285.43" enable-background="new 0 0 286.857 285.43" xml:space="preserve">
<defs>
	
	
		<inkscape:perspective  id="perspective10" inkscape:persp3d-origin="372.04724 : 350.78739 : 1" sodipodi:type="inkscape:persp3d" inkscape:vp_x="0 : 526.18109 : 1" inkscape:vp_y="0 : 1000 : 0" inkscape:vp_z="744.09448 : 526.18109 : 1">
		</inkscape:perspective>
</defs>
<sodipodi:namedview  id="base" inkscape:pageopacity="0.0" inkscape:pageshadow="2" inkscape:document-units="px" inkscape:current-layer="g2468" inkscape:window-width="1024" inkscape:window-height="706" inkscape:window-x="-8" inkscape:window-y="-8" inkscape:zoom="5.6568542" inkscape:cx="250.60046" pagecolor="#ffffff" bordercolor="#666666" inkscape:cy="127.60097" borderopacity="1.0" gridtolerance="10000" guidetolerance="10" objecttolerance="10" showgrid="false" inkscape:window-maximized="1">
	</sodipodi:namedview>
<g id="layer1" transform="translate(-106.57143,-57.505051)" inkscape:groupmode="layer" inkscape:label="Layer 1">
	<g id="g3187" transform="translate(4,8)">
	</g>
	<g id="g2468">
		<g id="g3228">
			
				<path id="path2387" sodipodi:cx="250" sodipodi:cy="200.21933" sodipodi:rx="141.42857" sodipodi:ry="140.71428" sodipodi:type="arc" fill="#F99C48" stroke="#E27A24" stroke-width="4" d="
				M391.429,200.219c0.025,77.715-63.271,140.731-141.382,140.761c-78.105,0.025-141.449-62.953-141.476-140.667
				c0-0.031,0-0.063,0-0.093c-0.025-77.714,63.271-140.734,141.383-140.761c78.108-0.024,141.449,62.951,141.475,140.668
				C391.429,200.158,391.429,200.189,391.429,200.219z"/>
			<path id="path3159" sodipodi:nodetypes="cscz" fill="#E89236" d="M389.478,199.865c0,76.626-62.5,138.814-139.513,138.814
				c-77.01,0-139.51-62.188-139.51-138.814l140.979,38.894"/>
		</g>
		<path id="path3161" sodipodi:nodetypes="ccc" stroke="#000000" stroke-width="5" d="M173.338,148.247v46.67v45.254"/>
		<path id="text3169" d="M321.255,146.394v-25.771h10.951c2.754,0,4.755,0.229,6.003,0.692s2.247,1.286,2.997,2.47
			c0.75,1.187,1.125,2.537,1.125,4.063c0,1.935-0.568,3.53-1.705,4.79c-1.137,1.261-2.836,2.055-5.098,2.383
			c1.125,0.655,2.054,1.377,2.786,2.161c0.729,0.785,1.72,2.181,2.962,4.185l3.146,5.027H338.2l-3.762-5.606
			c-1.336-2.005-2.25-3.268-2.742-3.786c-0.492-0.521-1.018-0.881-1.564-1.072c-0.55-0.192-1.424-0.29-2.619-0.29h-1.055v10.759
			L321.255,146.394L321.255,146.394z M326.458,131.523h3.854c2.492,0,4.055-0.104,4.676-0.313c0.621-0.213,1.104-0.574,1.459-1.093
			c0.352-0.516,0.523-1.157,0.523-1.935c0-0.866-0.229-1.566-0.69-2.102c-0.463-0.534-1.116-0.869-1.96-1.013
			c-0.422-0.06-1.688-0.088-3.797-0.088h-4.063L326.458,131.523L326.458,131.523z"/>
		<path id="text3173" d="M175.823,146.227h-4.939v-18.615c-1.805,1.688-3.932,2.938-6.381,3.744v-4.479
			c1.289-0.425,2.689-1.225,4.201-2.399s2.549-2.552,3.111-4.121h4.008V146.227z"/>
		<path id="path3177" sodipodi:nodetypes="ccc" stroke="#000000" stroke-width="5" d="M251.785,211.523v14.544v14.104"/>
		<path id="text3179" d="M179.277,265.253v4.588h-17.314c0.188-1.733,0.75-3.378,1.688-4.934c0.938-1.553,2.789-3.609,5.555-6.179
			c2.227-2.074,3.592-3.479,4.096-4.22c0.684-1.021,1.021-2.026,1.021-3.022c0-1.103-0.296-1.945-0.888-2.54
			c-0.596-0.592-1.409-0.888-2.452-0.888c-1.031,0-1.854,0.313-2.461,0.932c-0.609,0.621-0.961,1.652-1.059,3.097l-4.922-0.492
			c0.293-2.719,1.213-4.67,2.76-5.854c1.551-1.185,3.48-1.772,5.805-1.772c2.543,0,4.541,0.687,5.99,2.058
			c1.453,1.371,2.184,3.076,2.184,5.114c0,1.16-0.208,2.266-0.624,3.313c-0.416,1.05-1.075,2.146-1.979,3.298
			c-0.598,0.763-1.676,1.855-3.23,3.285c-1.562,1.433-2.546,2.381-2.962,2.851s-0.753,0.926-1.015,1.371h9.809L179.277,265.253
			L179.277,265.253z"/>
		<path id="text3183" d="M241.457,139.389l4.781-0.579c0.148,1.219,0.563,2.149,1.229,2.795c0.667,0.646,1.479,0.967,2.43,0.967
			c1.02,0,1.878-0.387,2.571-1.16c0.697-0.771,1.046-1.813,1.046-3.129c0-1.239-0.334-2.228-1.002-2.951
			c-0.668-0.727-1.479-1.092-2.439-1.092c-0.633,0-1.393,0.123-2.271,0.369l0.545-4.022c1.336,0.032,2.355-0.256,3.063-0.87
			c0.705-0.615,1.055-1.436,1.055-2.452c0-0.866-0.258-1.562-0.771-2.073c-0.519-0.516-1.201-0.771-2.061-0.771
			c-0.844,0-1.563,0.293-2.162,0.879c-0.598,0.586-0.961,1.438-1.09,2.563l-4.553-0.771c0.316-1.562,0.794-2.807,1.433-3.734
			c0.643-0.932,1.529-1.664,2.672-2.197c1.146-0.53,2.427-0.8,3.845-0.8c2.426,0,4.371,0.772,5.836,2.319
			c1.207,1.267,1.811,2.694,1.811,4.289c0,2.262-1.232,4.063-3.709,5.414c1.479,0.313,2.657,1.022,3.542,2.127
			c0.886,1.103,1.327,2.433,1.327,3.989c0,2.263-0.826,4.188-2.479,5.781c-1.652,1.597-3.711,2.394-6.174,2.394
			c-2.332,0-4.266-0.671-5.801-2.016C242.594,143.315,241.703,141.557,241.457,139.389L241.457,139.389z"/>
		<path id="text3196" d="M251.604,269.841v-5.188h-10.551v-4.322l11.184-16.364h4.145v16.349h3.199v4.342h-3.199v5.188
			L251.604,269.841L251.604,269.841z M251.604,260.313v-8.808l-5.928,8.808H251.604z"/>
		<path id="path3204" fill="none" stroke="#000000" stroke-width="5" d="M268,191.709h67.329"/>
		<path id="path3262" sodipodi:nodetypes="ccc" stroke="#000000" stroke-width="5" d="M251.337,148.626v13.521v13.111"/>
		<path id="path3264" fill="none" stroke="#000000" stroke-width="5" d="M171.224,191.709h62.839"/>
		<g id="g24" enable-background="new    ">
			<path id="path26" d="M241.211,205.931V180.16h5.063l10.547,17.209V180.16h4.834v25.771h-5.221l-10.391-16.805v16.805H241.211z"/>
		</g>
	</g>
</g>
<line fill="none" stroke="#000000" stroke-width="5" x1="226.266" y1="135.54" x2="226.266" y2="91.121"/>
</svg>
